<svg xmlns="http://www.w3.org/2000/svg" width="940" height="560" viewBox="0 0 940 560" role="img" aria-labelledby="title desc">
  <title id="title">Bark group URL example with key redacted</title>
  <desc id="desc">A Bark app group URL example showing the API key redacted and groupName highlighted.</desc>
  <rect width="940" height="560" rx="28" fill="#111"/>
  <rect x="40" y="34" width="860" height="70" rx="35" fill="#202124" stroke="#333" stroke-width="2"/>
  <text x="470" y="82" text-anchor="middle" font-family="Arial, Helvetica, sans-serif" font-size="34" font-weight="700" fill="#f7f7f7">api.day.app</text>
  <rect x="48" y="142" width="844" height="148" rx="18" fill="#1b1b1d"/>
  <text x="78" y="202" font-family="Arial, Helvetica, sans-serif" font-size="30" fill="#f0f0f0">推送消息分组</text>
  <rect x="78" y="330" width="330" height="122" rx="18" fill="#2b2c30"/>
  <circle cx="118" cy="372" r="19" fill="none" stroke="#68d7ff" stroke-width="5"/>
  <path d="M108 370l8 9 20-23" fill="none" stroke="#68d7ff" stroke-width="5" stroke-linecap="round" stroke-linejoin="round"/>
  <text x="164" y="384" font-family="Arial, Helvetica, sans-serif" font-size="32" fill="#f0f0f0">开发通知</text>
  <line x1="108" y1="410" x2="370" y2="410" stroke="#444" stroke-width="1"/>
  <circle cx="118" cy="432" r="19" fill="none" stroke="#68d7ff" stroke-width="5"/>
  <path d="M108 430l8 9 20-23" fill="none" stroke="#68d7ff" stroke-width="5" stroke-linecap="round" stroke-linejoin="round"/>
  <text x="164" y="444" font-family="Arial, Helvetica, sans-serif" font-size="32" fill="#f0f0f0">监控提醒</text>
  <rect x="435" y="318" width="405" height="66" rx="28" fill="#2d3037"/>
  <circle cx="478" cy="351" r="24" fill="#ffcf24"/>
  <text x="518" y="362" font-family="Arial, Helvetica, sans-serif" font-size="28" font-weight="700" fill="#f0f0f0">开发通知</text>
  <text x="518" y="404" font-family="Arial, Helvetica, sans-serif" font-size="27" fill="#f0f0f0">branch:feature 单元测试失败</text>
  <rect x="48" y="470" width="844" height="62" rx="12" fill="#1b1b1d"/>
  <text x="78" y="511" font-family="Menlo, Consolas, monospace" font-size="24" fill="#f4f4f4">https://api.day.app/</text>
  <rect x="355" y="488" width="168" height="26" rx="8" fill="#777"/>
  <text x="535" y="511" font-family="Menlo, Consolas, monospace" font-size="24" fill="#f4f4f4">/推送消息分组?group=</text>
  <rect x="820" y="486" width="92" height="32" rx="8" fill="#314b8f"/>
  <text x="866" y="511" text-anchor="middle" font-family="Menlo, Consolas, monospace" font-size="20" fill="#fff">groupName</text>
</svg>
